<?xml version="1.0" standalone="no"?><!DOCTYPE svg PUBLIC "-//W3C//DTD SVG 1.1//EN" "http://www.w3.org/Graphics/SVG/1.1/DTD/svg11.dtd"><svg t="1631072028491" class="icon" viewBox="0 0 1024 1024" version="1.1" xmlns="http://www.w3.org/2000/svg" p-id="2809" xmlns:xlink="http://www.w3.org/1999/xlink" width="200" height="200"><defs><style type="text/css"></style></defs><path d="M407.552 416.768l-204.8 39.253333 17.408 76.8 202.752-39.253333-15.36-76.8z m110.250667 203.776c-49.834667 107.178667-94.890667 26.282667-94.890667 26.282667l-33.450667 21.504s65.877333 90.112 129.024 21.504c74.069333 68.608 131.072-22.186667 131.072-22.186667l-30.378666-19.456c-0.341333-0.341333-53.248 76.458667-101.376-27.648z m101.034666-126.976l203.093334 39.253333 17.066666-76.8-204.117333-39.253333-16.042667 76.8z m403.456-150.869333c-3.072-143.018667-128-170.666667-128-170.666667s-97.28-0.682667-223.914666-1.706667l92.16-88.746666s14.677333-18.432-10.24-38.570667c-24.576-20.48-26.282667-11.264-34.816-5.802667-7.509333 5.461333-117.76 113.664-137.216 132.778667-50.176 0-102.058667-0.682667-152.917334-0.682667h17.749334S313.344 39.253333 304.810667 33.109333c-8.533333-5.802667-9.557333-14.677333-34.816 5.802667-24.576 20.48-10.24 38.570667-10.24 38.570667l94.208 91.477333c-102.058667 0-190.464 0.682667-231.424 2.048C-9.898667 209.92 0.341333 342.698667 0.341333 342.698667s1.706667 285.013333 0 429.397333c14.677333 144.042667 125.269333 167.253333 125.269334 167.253333s44.032 1.024 76.8 1.024c3.072 9.216 5.802667 54.272 56.32 54.272 50.176 0 56.32-54.272 56.32-54.272s368.64-1.706667 399.018666-1.706666c1.706667 15.701333 9.216 57.002667 59.733334 56.32 50.176-1.024 53.930667-59.733333 53.930666-59.733334s17.066667-1.706667 68.266667 0c119.466667-22.186667 126.293333-161.792 126.293333-161.792s-1.706667-287.402667 0-430.762666z m-102.741333 456.362666c0 22.528-17.749333 40.96-39.936 40.96H153.6c-22.186667 0-39.936-18.432-39.936-40.96V317.44c0-22.528 17.749333-40.96 39.936-40.96h726.357333c22.186667 0 39.936 18.432 39.936 40.96v481.621333z m0 0" p-id="2810" fill="#ffffff"></path></svg>